<svg xmlns="http://www.w3.org/2000/svg" width="48" height="48" viewBox="0 0 48 48"><path d="M42,4.121A35.886,35.886,0,0,1,36,6.1c-2.242-2.53-5.566-2.67-8.76-1.474A7.866,7.866,0,0,0,22,12.1v2a18.785,18.785,0,0,1-16-8s-8.364,14.866,8,22c-3.744,2.494-7.478,4.176-12,4,6.616,3.606,13.826,4.846,20.068,3.034a22.009,22.009,0,0,0,15.3-15.484,27.68,27.68,0,0,0,.994-7.506c0-.5,3.02-5.544,3.636-8.026Z" transform="translate(2 3.899)" fill="none" stroke="#fff" stroke-linecap="round" stroke-linejoin="round" stroke-width="3.6"/></svg>